<svg width="650" height="202" viewBox="0 0 650 202" fill="none" xmlns="http://www.w3.org/2000/svg">
<path d="M255.532 124.528H245.212V77.1336H267.686C269.859 77.1336 271.829 77.4955 273.594 78.22C275.36 78.9439 276.853 79.9853 278.075 81.343C279.343 82.6558 280.316 84.2398 280.995 86.0963C281.674 87.9523 282.013 90.0117 282.013 92.2751C282.013 95.4888 281.29 98.2961 279.841 100.695C278.438 103.094 276.287 104.837 273.39 105.923L282.693 124.528H271.217L262.934 107.145H255.533V124.528H255.532ZM266.396 98.4546C267.935 98.4546 269.135 98.0692 269.995 97.2997C270.9 96.4852 271.353 95.3081 271.353 93.7691V90.7818C271.353 89.2421 270.9 88.0879 269.995 87.3184C269.135 86.5039 267.935 86.0963 266.396 86.0963H255.532V98.4546H266.396ZM313.707 77.1007V106.162C313.707 109.512 314.363 112.024 315.676 113.699C316.988 115.328 319.184 116.144 322.262 116.144C325.341 116.144 327.536 115.328 328.849 113.699C330.161 112.024 330.818 109.512 330.818 106.162V77.1007H340.868V105.076C340.868 108.561 340.527 111.594 339.848 114.174C339.215 116.71 338.151 118.814 336.657 120.489C335.163 122.118 333.24 123.342 330.886 124.156C328.532 124.926 325.658 125.31 322.263 125.31C318.868 125.31 315.993 124.926 313.639 124.156C311.285 123.341 309.361 122.119 307.867 120.489C306.374 118.815 305.287 116.709 304.608 114.174C303.974 111.594 303.657 108.561 303.657 105.076V77.1007H313.707ZM381.023 125.343C376.858 125.343 373.328 124.641 370.431 123.238C367.534 121.789 365.066 119.933 363.029 117.67L369.819 110.812C373.033 114.433 376.995 116.244 381.702 116.244C384.237 116.244 386.115 115.723 387.337 114.683C388.56 113.641 389.171 112.261 389.171 110.54C389.171 109.228 388.809 108.141 388.085 107.281C387.36 106.376 385.89 105.765 383.671 105.448L378.986 104.837C373.961 104.203 370.272 102.687 367.918 100.288C365.609 97.8886 364.455 94.6971 364.455 90.7133C364.455 88.5861 364.862 86.6395 365.677 84.8743C366.492 83.1083 367.647 81.5921 369.14 80.3244C370.68 79.0567 372.535 78.0838 374.708 77.4049C376.927 76.6804 379.438 76.3185 382.245 76.3185C385.821 76.3185 388.968 76.8845 391.683 78.0159C394.399 79.148 396.73 80.7998 398.677 82.9727L391.819 89.8988C390.687 88.5861 389.307 87.5219 387.677 86.7074C386.092 85.8472 384.079 85.4175 381.634 85.4175C379.325 85.4175 377.605 85.8244 376.474 86.6395C375.342 87.454 374.776 88.5855 374.776 90.0345C374.776 91.6635 375.206 92.8412 376.066 93.565C376.971 94.2895 378.42 94.8099 380.412 95.1269L385.097 95.8735C389.986 96.6437 393.607 98.1599 395.962 100.423C398.314 102.641 399.492 105.81 399.492 109.929C399.492 112.192 399.085 114.275 398.27 116.177C397.455 118.077 396.255 119.707 394.671 121.065C393.132 122.423 391.208 123.486 388.899 124.256C386.591 124.981 383.965 125.343 381.023 125.343V125.343ZM444.993 86.3448V124.573H434.672V86.3448H421.839V77.178H457.826V86.3448H444.993ZM512.962 124.573L509.566 113.301H493.745L490.351 124.573H479.894L495.511 77.178H508.277L523.69 124.573H512.962ZM501.758 86.5483H501.418L496.19 104.542H507.054L501.758 86.5483ZM560.072 102.393L555.521 92.8862H555.317V124.8H545.605V77.4049H556.876L569.847 99.8123L574.398 109.318H574.601V77.4049H584.309V124.8H573.037L560.072 102.393ZM639.267 124.573L635.873 113.301H620.052L616.657 124.573H606.202L621.82 77.178H634.586L650 124.573H639.268H639.267ZM628.064 86.5483H627.724L622.5 104.542H633.363L628.064 86.5483ZM210.349 86.2998V124.528H200.029V86.2998H187.195V77.1336H223.183V86.2998H210.349Z" fill="#201C49"/>
<path fill-rule="evenodd" clip-rule="evenodd" d="M93.2595 35H66.9V100.9H66.9007V100.901H132.801V74.5405H93.2595V35ZM40.5399 166.802H66.9V127.261H66.9007V100.901H1V127.261H40.5399V166.802Z" fill="#4142C9"/>
</svg>
